<svg width="512" height="512" viewBox="0 0 512 512" xmlns="http://www.w3.org/2000/svg">
  <defs>
    <linearGradient id="g2" x1="0" y1="0" x2="1" y2="1">
      <stop offset="0%" stop-color="#111827"/>
      <stop offset="40%" stop-color="#2563EB"/>
      <stop offset="100%" stop-color="#16A34A"/>
    </linearGradient>
  </defs>
  <rect x="0" y="0" width="512" height="512" rx="110" fill="url(#g2)"/>

  <!-- دائرة خفيفة في الخلفية -->
  <circle cx="256" cy="256" r="150" fill="rgba(255,255,255,0.08)"/>

  <!-- حرف ب كبير في المنتصف -->
  <path d="M190 120h90c66 0 104 30 104 86 0 34-16 58-45 71 33 12 50 35 50 69 0 57-37 86-108 86h-91V120zm57 58v55h40c25 0 40-12 40-29 0-18-15-26-40-26h-40zm0 113v59h44c27 0 42-11 42-30 0-20-15-29-42-29h-44z"
        fill="#FFFFFF"/>
</svg>
