<svg width="192" height="192" viewBox="0 0 192 192" xmlns="http://www.w3.org/2000/svg">
  <defs>
    <linearGradient id="g" x1="0" y1="0" x2="1" y2="1">
      <stop offset="0%" stop-color="#2563EB"/>
      <stop offset="100%" stop-color="#16A34A"/>
    </linearGradient>
  </defs>
  <rect x="0" y="0" width="192" height="192" rx="40" fill="url(#g)"/>
  <!-- حرف ب -->
  <path d="M70 50h30c22 0 34 10 34 28 0 11-5 19-14 23 11 4 17 12 17 24 0 19-13 29-36 29H70V50zm19 29v18h13c8 0 13-4 13-9 0-6-5-9-13-9H89zm0 37v20h15c9 0 14-4 14-10 0-7-5-10-14-10H89z"
        fill="#FFFFFF"/>
</svg>
